<?xml version="1.0" encoding="utf-8"?>
<svg width="128px" height="128px" viewBox="0 0 128 128" version="1.1" xmlns:xlink="http://www.w3.org/1999/xlink" xmlns="http://www.w3.org/2000/svg">
  <defs>
    <path d="M128 0L128 0L128 128L0 128L0 0L128 0Z" id="path_1" />
    <path d="M65.1195 14.5909C64.9357 16.4997 64.3425 18.3398 63.3876 19.9884C63.6134 19.9821 63.8413 19.9766 64.0714 19.9719C75.152 21.1209 77.7915 37.3343 85.7077 57.1422C88.114 63.1632 93.6698 69.5461 99.4282 76.1616C112.614 91.3101 126.861 107.678 106.789 123.716C82.8519 142.842 34.0529 92.7549 18.1596 75.1804C15.2825 71.9988 14.4821 66.1871 16.2716 62.2886L17.3733 59.8883C17.3652 59.7384 17.3475 59.5886 17.32 59.4399C17.2025 58.8062 16.912 58.2172 16.4807 57.7382C16.0495 57.2592 15.494 56.9088 14.876 56.7257C14.258 56.5426 13.6013 56.534 12.9788 56.7008C12.3562 56.8677 11.7918 57.2034 11.3481 57.671C10.9044 58.1385 10.5987 58.7197 10.4646 59.3502C10.3306 59.9807 10.3736 60.636 10.5888 61.2436C10.8039 61.8512 11.1828 62.3874 11.6838 62.7931L11.4394 63.0949C10.8828 62.6442 10.4617 62.0483 10.2227 61.3732C9.98362 60.6981 9.93594 59.97 10.0848 59.2695C10.2336 58.5689 10.5735 57.9232 11.0664 57.4037C11.5594 56.8842 12.1865 56.5111 12.8783 56.3257C13.57 56.1404 14.2997 56.1499 14.9864 56.3533C15.6731 56.5567 16.2902 56.9461 16.7694 57.4783C17.2176 57.9762 17.5291 58.5809 17.6741 59.2332L21.393 51.1311C21.4375 50.712 21.4291 50.287 21.3662 49.8663C21.2301 48.9556 20.8448 48.1002 20.2529 47.3948C19.661 46.6894 18.8856 46.1615 18.0124 45.8693C17.139 45.5771 16.202 45.5321 15.3048 45.7392C14.4076 45.9464 13.5851 46.3976 12.9283 47.043C12.2715 47.6884 11.806 48.5029 11.5832 49.3964C11.3605 50.2898 11.3891 51.2275 11.6661 52.1057C11.943 52.9839 12.4574 53.7685 13.1522 54.3726L12.7883 54.7913C12.0161 54.12 11.4447 53.2483 11.1369 52.2725C10.8293 51.2968 10.7975 50.2549 11.045 49.2622C11.2926 48.2694 11.8097 47.3644 12.5395 46.6473C13.2692 45.9302 14.1831 45.4288 15.1799 45.1987C16.1769 44.9685 17.2181 45.0185 18.1883 45.3432C19.1586 45.6678 20.0202 46.2545 20.6779 47.0382C21.3355 47.822 21.7636 48.7724 21.9149 49.7843C21.923 49.8384 21.9302 49.8926 21.9367 49.9468L27.56 37.6962C27.6513 37.0164 27.6108 36.3226 27.4375 35.6532C27.1916 34.702 26.6873 33.8373 25.9805 33.1548C25.2738 32.4723 24.3921 31.9985 23.4328 31.7859C22.4736 31.5732 21.4742 31.6299 20.5453 31.9498C19.6163 32.2697 18.7939 32.8402 18.1688 33.5984C17.5438 34.3565 17.1408 35.2727 17.004 36.2457C16.8673 37.2186 17.0022 38.2105 17.394 39.1115C17.7858 40.0125 18.4191 40.7877 19.2239 41.3512L18.8845 41.8361C17.9901 41.2099 17.2865 40.3487 16.8512 39.3475C16.4159 38.3464 16.2659 37.2444 16.4178 36.1633C16.5697 35.0822 17.0176 34.0642 17.7121 33.2219C18.4065 32.3795 19.3203 31.7455 20.3526 31.3901C21.3848 31.0347 22.4952 30.9717 23.561 31.2079C24.6268 31.4442 25.6064 31.9706 26.3918 32.729C27.1771 33.4873 27.7374 34.4481 28.0107 35.505C28.0847 35.7911 28.1368 36.0813 28.1673 36.373L28.5654 35.5058C32.4254 32.5508 35.4752 29.9541 38.4424 27.7713L38.3923 27.7479C39.0149 26.4126 39.2561 24.9312 39.0894 23.4673C38.9227 22.0035 38.3542 20.6143 37.4471 19.4533C36.5401 18.2923 35.3297 17.4048 33.9497 16.8888C32.5696 16.3728 31.0738 16.2485 29.6275 16.5296C28.1812 16.8108 26.841 17.4864 25.7548 18.4817C24.6685 19.4771 23.8786 20.7534 23.4725 22.1697C23.0665 23.5859 23.0598 25.0869 23.4536 26.5066C23.8473 27.9264 24.626 29.2096 25.7036 30.2144L25.0981 30.8636C23.9009 29.7471 23.0357 28.3213 22.5982 26.7438C22.1607 25.1664 22.1681 23.4986 22.6192 21.925C23.0705 20.3514 23.9481 18.9332 25.155 17.8273C26.362 16.7213 27.8513 15.9707 29.4582 15.6583C31.0651 15.3459 32.7272 15.4841 34.2605 16.0573C35.7939 16.6306 37.1389 17.6168 38.1467 18.9068C39.1545 20.1968 39.786 21.7404 39.9713 23.3669C40.1068 24.5564 39.9998 25.7564 39.6619 26.8957C45.2959 22.957 50.9929 20.5468 61.7792 20.0475C62.9069 18.3872 63.6012 16.4673 63.7942 14.4633C64.006 12.2635 63.6054 10.0479 62.6367 8.06161C61.6678 6.07529 60.1686 4.39557 58.3047 3.20815C56.4409 2.02073 54.2849 1.37187 52.0753 1.3333C49.8656 1.29473 47.6884 1.86796 45.7841 2.98961C43.8799 4.11126 42.3231 5.73764 41.2855 7.68893C40.248 9.64023 39.7703 11.8404 39.9052 14.0463C40.0402 16.2521 40.7824 18.3777 42.0501 20.188L40.9593 20.9517C39.5508 18.9403 38.7261 16.5785 38.5762 14.1276C38.4264 11.6766 38.9571 9.23195 40.11 7.06384C41.2627 4.89574 42.9926 3.08865 45.1084 1.84237C47.2242 0.596094 49.6434 -0.0408254 52.0986 0.00202849C54.5536 0.0448823 56.9491 0.765843 59.0202 2.0852C61.0911 3.40455 62.7569 5.27091 63.8333 7.47793C64.9098 9.68495 65.3549 12.1467 65.1195 14.5909L65.1195 14.5909Z" id="path_2" />
    <clipPath id="clip_1">
      <use xlink:href="#path_1" clip-rule="evenodd" fill-rule="evenodd" />
    </clipPath>
    <clipPath id="clip_2">
      <use xlink:href="#path_2" />
    </clipPath>
  </defs>
  <g id="Icon 128">
    <path d="M128 0L128 0L128 128L0 128L0 0L128 0Z" id="Icon-128" fill="#FFFFFF" stroke="none" />
    <g id="Vector" clip-path="url(#clip_1)">
      <g clip-path="url(#clip_2)">
        <use xlink:href="#path_2" fill="none" stroke="#000000" stroke-width="2" />
      </g>
    </g>
  </g>
</svg>