<?xml version="1.0" encoding="utf-8"?>
<svg width="128px" height="128px" viewBox="0 0 128 128" version="1.1" xmlns:xlink="http://www.w3.org/1999/xlink" xmlns="http://www.w3.org/2000/svg">
  <defs>
    <path d="M128 0L128 0L128 128L0 128L0 0L128 0Z" id="path_1" />
    <path d="M66.1195 14.5909C65.9357 16.4997 65.3425 18.3398 64.3876 19.9884C64.6134 19.9821 64.8414 19.9766 65.0715 19.9719C76.152 21.1209 78.7916 37.3343 86.7078 57.1422C89.1141 63.1632 94.6699 69.5461 100.428 76.1616C113.614 91.3101 127.861 107.678 107.789 123.716C83.8519 142.842 35.0529 92.7549 19.1596 75.1804C16.2825 71.9988 15.4822 66.1871 17.2717 62.2886L18.3734 59.8883C18.3652 59.7384 18.3475 59.5886 18.32 59.4399C18.2026 58.8062 17.912 58.2172 17.4808 57.7382C17.0495 57.2592 16.4941 56.9088 15.876 56.7257C15.258 56.5426 14.6014 56.534 13.9789 56.7008C13.3562 56.8677 12.7918 57.2034 12.3481 57.671C11.9044 58.1385 11.5987 58.7197 11.4646 59.3502C11.3307 59.9807 11.3736 60.636 11.5888 61.2436C11.8039 61.8512 12.1829 62.3874 12.6839 62.7931L12.4394 63.0949C11.8829 62.6442 11.4618 62.0483 11.2227 61.3732C10.9837 60.6981 10.936 59.97 11.0848 59.2695C11.2337 58.5689 11.5735 57.9232 12.0664 57.4037C12.5594 56.8842 13.1865 56.5111 13.8784 56.3257C14.5701 56.1404 15.2997 56.1499 15.9864 56.3533C16.6731 56.5567 17.2902 56.9461 17.7694 57.4783C18.2176 57.9762 18.5291 58.5809 18.6742 59.2332L22.3931 51.1311C22.4375 50.712 22.4291 50.287 22.3663 49.8663C22.2302 48.9556 21.8448 48.1002 21.2529 47.3948C20.661 46.6894 19.8856 46.1615 19.0124 45.8693C18.1391 45.5771 17.202 45.5321 16.3049 45.7392C15.4077 45.9464 14.5851 46.3976 13.9284 47.043C13.2716 47.6884 12.8061 48.5029 12.5833 49.3964C12.3606 50.2898 12.3892 51.2275 12.6662 52.1057C12.943 52.9839 13.4574 53.7685 14.1522 54.3726L13.7883 54.7913C13.0161 54.12 12.4447 53.2483 12.137 52.2725C11.8294 51.2968 11.7975 50.2549 12.045 49.2622C12.2926 48.2694 12.8097 47.3644 13.5395 46.6473C14.2693 45.9302 15.1831 45.4288 16.18 45.1987C17.177 44.9685 18.2182 45.0185 19.1883 45.3432C20.1587 45.6678 21.0202 46.2545 21.6779 47.0382C22.3355 47.822 22.7637 48.7724 22.915 49.7843C22.9231 49.8384 22.9303 49.8926 22.9368 49.9468L28.56 37.6962C28.6513 37.0164 28.6108 36.3226 28.4376 35.6532C28.1916 34.702 27.6873 33.8373 26.9806 33.1548C26.2738 32.4723 25.3921 31.9985 24.4329 31.7859C23.4737 31.5732 22.4742 31.6299 21.5453 31.9498C20.6163 32.2697 19.7939 32.8402 19.1688 33.5984C18.5439 34.3565 18.1408 35.2727 18.004 36.2457C17.8674 37.2186 18.0023 38.2105 18.3941 39.1115C18.7858 40.0125 19.4191 40.7877 20.2239 41.3512L19.8845 41.8361C18.9902 41.2099 18.2866 40.3487 17.8512 39.3475C17.4159 38.3464 17.266 37.2444 17.4178 36.1633C17.5698 35.0822 18.0177 34.0642 18.7121 33.2219C19.4065 32.3795 20.3204 31.7455 21.3526 31.3901C22.3848 31.0347 23.4952 30.9717 24.561 31.2079C25.6268 31.4442 26.6065 31.9706 27.3918 32.729C28.1771 33.4873 28.7374 34.4481 29.0108 35.505C29.0847 35.7911 29.1369 36.0813 29.1673 36.373L29.5654 35.5058C33.4254 32.5508 36.4752 29.9541 39.4424 27.7713L39.3923 27.7479C40.0149 26.4126 40.2562 24.9312 40.0894 23.4673C39.9227 22.0035 39.3542 20.6143 38.4472 19.4533C37.5401 18.2923 36.3298 17.4048 34.9497 16.8888C33.5697 16.3728 32.0738 16.2485 30.6276 16.5296C29.1813 16.8108 27.8411 17.4864 26.7548 18.4817C25.6685 19.4771 24.8786 20.7534 24.4726 22.1697C24.0665 23.5859 24.0599 25.0869 24.4536 26.5066C24.8473 27.9264 25.626 29.2096 26.7036 30.2144L26.0982 30.8636C24.901 29.7471 24.0358 28.3213 23.5983 26.7438C23.1608 25.1664 23.1681 23.4986 23.6193 21.925C24.0706 20.3514 24.9481 18.9332 26.1551 17.8273C27.362 16.7213 28.8513 15.9707 30.4583 15.6583C32.0652 15.3459 33.7272 15.4841 35.2606 16.0573C36.7939 16.6306 38.1389 17.6168 39.1467 18.9068C40.1546 20.1968 40.786 21.7404 40.9713 23.3669C41.1069 24.5564 40.9999 25.7564 40.662 26.8957C46.2959 22.957 51.993 20.5468 62.7792 20.0475C63.9069 18.3872 64.6012 16.4673 64.7942 14.4633C65.0061 12.2635 64.6054 10.0479 63.6367 8.06161C62.6679 6.07529 61.1686 4.39557 59.3048 3.20815C57.4409 2.02073 55.2849 1.37187 53.0753 1.3333C50.8657 1.29473 48.6884 1.86796 46.7842 2.98961C44.88 4.11126 43.3232 5.73764 42.2855 7.68893C41.248 9.64023 40.7703 11.8404 40.9052 14.0463C41.0403 16.2521 41.7825 18.3777 43.0501 20.188L41.9594 20.9517C40.5509 18.9403 39.7262 16.5785 39.5762 14.1276C39.4264 11.6766 39.9571 9.23195 41.11 7.06384C42.2628 4.89574 43.9927 3.08865 46.1084 1.84237C48.2242 0.596094 50.6434 -0.0408254 53.0986 0.00202849C55.5537 0.0448823 57.9491 0.765843 60.0202 2.0852C62.0912 3.40455 63.757 5.27091 64.8334 7.47793C65.9099 9.68495 66.3549 12.1467 66.1195 14.5909L66.1195 14.5909Z" id="path_2" />
    <clipPath id="clip_1">
      <use xlink:href="#path_1" clip-rule="evenodd" fill-rule="evenodd" />
    </clipPath>
    <clipPath id="clip_2">
      <use xlink:href="#path_2" />
    </clipPath>
  </defs>
  <g id="Icon 128">
    <path d="M128 0L128 0L128 128L0 128L0 0L128 0Z" id="Icon-128" fill="#FFFFFF" stroke="none" />
    <g id="Vector" clip-path="url(#clip_1)">
      <use stroke="none" fill="#FFFFFF" fill-opacity="0" xlink:href="#path_2" fill-rule="evenodd" />
      <g clip-path="url(#clip_2)">
        <use xlink:href="#path_2" fill="none" stroke="#000000" stroke-width="22" />
      </g>
    </g>
  </g>
</svg>