<?xml version="1.0" encoding="utf-8"?>
<svg width="48px" height="48px" viewBox="0 0 48 48" version="1.1" xmlns:xlink="http://www.w3.org/1999/xlink" xmlns="http://www.w3.org/2000/svg">
  <defs>
    <path d="M0 24C0 10.7452 10.7452 0 24 0C37.2548 0 48 10.7452 48 24C48 37.2548 37.2548 48 24 48C10.7452 48 0 37.2548 0 24Z" id="path_1" />
    <path d="M24.4872 10.1037C24.4355 10.6405 24.2687 11.1581 24.0001 11.6217C24.0636 11.62 24.1277 11.6184 24.1925 11.6171C27.3089 11.9403 28.0512 16.5003 30.2777 22.0712C30.9544 23.7646 32.517 25.5598 34.1366 27.4205C37.845 31.681 41.8521 36.2845 36.2069 40.7951C29.4745 46.1743 15.7497 32.0873 11.2797 27.1445C10.4706 26.2497 10.2455 24.6151 10.7488 23.5187L11.0586 22.8436C11.0563 22.8014 11.0513 22.7593 11.0436 22.7175C11.0106 22.5392 10.9289 22.3736 10.8076 22.2389C10.6863 22.1041 10.5301 22.0056 10.3562 21.9541C10.1824 21.9026 9.99774 21.9002 9.82266 21.9471C9.64754 21.994 9.4888 22.0885 9.36401 22.22C9.23921 22.3515 9.15324 22.5149 9.11552 22.6922C9.07785 22.8696 9.08992 23.0539 9.15046 23.2248C9.21095 23.3956 9.31753 23.5465 9.45844 23.6606L9.38968 23.7454C9.23316 23.6187 9.11472 23.4511 9.04749 23.2612C8.98025 23.0713 8.96684 22.8666 9.00871 22.6695C9.05057 22.4725 9.14615 22.2909 9.28477 22.1448C9.42344 21.9987 9.59981 21.8937 9.79439 21.8416C9.98894 21.7895 10.1941 21.7922 10.3873 21.8494C10.5804 21.9066 10.754 22.0161 10.8887 22.1658C11.0148 22.3058 11.1024 22.4759 11.1432 22.6594L12.1892 20.3806C12.2016 20.2628 12.1993 20.1432 12.1816 20.0249C12.1433 19.7688 12.035 19.5282 11.8685 19.3298C11.702 19.1314 11.4839 18.9829 11.2383 18.9007C10.9927 18.8186 10.7292 18.8059 10.4768 18.8642C10.2245 18.9224 9.99317 19.0493 9.80845 19.2308C9.62373 19.4124 9.4928 19.6414 9.43014 19.8927C9.36751 20.144 9.37555 20.4077 9.45345 20.6547C9.53132 20.9017 9.676 21.1224 9.87142 21.2923L9.76906 21.41C9.55189 21.2213 9.39117 20.9761 9.30462 20.7017C9.21811 20.4272 9.20916 20.1342 9.27876 19.855C9.34839 19.5758 9.49383 19.3212 9.69908 19.1196C9.90433 18.9179 10.1613 18.7769 10.4417 18.7121C10.7221 18.6474 11.015 18.6615 11.2878 18.7528C11.5607 18.8441 11.803 19.0091 11.988 19.2295C12.173 19.4499 12.2934 19.7172 12.3359 20.0018C12.3382 20.017 12.3402 20.0323 12.3421 20.0475L13.9236 16.6021C13.9493 16.4109 13.9379 16.2157 13.8892 16.0275C13.82 15.7599 13.6782 15.5167 13.4794 15.3248C13.2806 15.1328 13.0326 14.9996 12.7628 14.9398C12.4931 14.88 12.212 14.8959 11.9507 14.9859C11.6894 15.0759 11.4581 15.2363 11.2823 15.4495C11.1066 15.6628 10.9932 15.9205 10.9547 16.1941C10.9163 16.4677 10.9542 16.7467 11.0644 17.0001C11.1746 17.2535 11.3527 17.4715 11.5791 17.63L11.4836 17.7664C11.2321 17.5903 11.0342 17.3481 10.9118 17.0665C10.7893 16.7849 10.7472 16.475 10.7899 16.1709C10.8326 15.8669 10.9586 15.5806 11.1539 15.3436C11.3492 15.1067 11.6062 14.9284 11.8965 14.8285C12.1868 14.7285 12.4991 14.7108 12.7989 14.7772C13.0986 14.8437 13.3742 14.9917 13.595 15.205C13.8159 15.4183 13.9735 15.6885 14.0504 15.9858C14.0712 16.0662 14.0858 16.1479 14.0944 16.2299L14.2064 15.986C15.292 15.1549 16.1498 14.4246 16.9843 13.8107L16.9702 13.8041C17.1453 13.4286 17.2131 13.0119 17.1663 12.6002C17.1194 12.1885 16.9595 11.7978 16.7044 11.4712C16.4493 11.1447 16.1088 10.8951 15.7207 10.75C15.3326 10.6049 14.9119 10.5699 14.5051 10.649C14.0983 10.728 13.7214 10.918 13.4159 11.198C13.1104 11.4779 12.8882 11.8369 12.774 12.2352C12.6598 12.6335 12.6579 13.0557 12.7687 13.455C12.8794 13.8543 13.0984 14.2152 13.4015 14.4978L13.2312 14.6804C12.8945 14.3664 12.6512 13.9654 12.5281 13.5217C12.4051 13.078 12.4071 12.609 12.534 12.1664C12.6609 11.7238 12.9078 11.325 13.2472 11.0139C13.5867 10.7029 14.0055 10.4918 14.4575 10.4039C14.9094 10.316 15.3769 10.3549 15.8081 10.5161C16.2394 10.6774 16.6177 10.9547 16.9011 11.3175C17.1846 11.6803 17.3622 12.1145 17.4143 12.5719C17.4524 12.9065 17.4223 13.244 17.3273 13.5644C18.9118 12.4567 20.5141 11.7788 23.5478 11.6384C23.8649 11.1714 24.0602 10.6314 24.1145 10.0678C24.1741 9.4491 24.0614 8.82598 23.7889 8.26733C23.5164 7.70868 23.0948 7.23625 22.5706 6.90229C22.0464 6.56833 21.44 6.38584 20.8185 6.37499C20.1971 6.36414 19.5847 6.52536 19.0492 6.84083C18.5136 7.15629 18.0757 7.61371 17.7839 8.16251C17.4921 8.71131 17.3577 9.33012 17.3957 9.95052C17.4337 10.5709 17.6424 11.1687 17.9989 11.6779L17.6922 11.8927C17.296 11.327 17.0641 10.6627 17.0219 9.97338C16.9798 9.28405 17.129 8.59649 17.4533 7.98671C17.7775 7.37693 18.264 6.86868 18.8591 6.51817C19.4542 6.16765 20.1346 5.98852 20.8251 6.00057C21.5156 6.01262 22.1893 6.21539 22.7718 6.58646C23.3542 6.95753 23.8228 7.48244 24.1255 8.10317C24.4283 8.72389 24.5534 9.41625 24.4872 10.1037L24.4872 10.1037Z" id="path_2" />
    <clipPath id="clip_1">
      <use xlink:href="#path_1" />
    </clipPath>
    <clipPath id="clip_2">
      <use xlink:href="#path_2" />
    </clipPath>
  </defs>
  <g id="Group">
    <g id="Oval">
      <use stroke="none" fill="#FFFFFF" xlink:href="#path_1" fill-rule="evenodd" />
      <g clip-path="url(#clip_1)">
        <use xlink:href="#path_1" fill="none" stroke="#FFA000" stroke-width="2" />
      </g>
    </g>
    <g id="Vector-Copy">
      <g clip-path="url(#clip_2)">
        <use xlink:href="#path_2" fill="none" stroke="#FC4850" stroke-width="2" />
      </g>
    </g>
  </g>
</svg>