<?xml version="1.0" encoding="utf-8"?>
<svg width="128px" height="128px" viewBox="0 0 128 128" version="1.1" xmlns:xlink="http://www.w3.org/1999/xlink" xmlns="http://www.w3.org/2000/svg">
  <defs>
    <path d="M128 0L128 0L128 128L0 128L0 0L128 0Z" id="path_1" />
    <path d="M0 64C0 28.6538 28.6538 0 64 0C99.3462 0 128 28.6538 128 64C128 99.3462 99.3462 128 64 128C28.6538 128 0 99.3462 0 64Z" id="path_2" />
    <path d="M65.2992 26.9432C65.1613 28.3748 64.7164 29.7548 64.0002 30.9913C64.1696 30.9866 64.3405 30.9825 64.5131 30.9789C72.8235 31.8407 74.8032 44.0007 80.7403 58.8566C82.5451 63.3724 86.7119 68.1595 91.0307 73.1212C100.92 84.4826 111.605 96.7588 96.5516 108.787C78.5985 123.132 41.9992 85.5661 30.0792 72.3853C27.9214 69.9991 27.3211 65.6403 28.6633 62.7165L29.4895 60.9162C29.4835 60.8038 29.4701 60.6915 29.4495 60.5799C29.3615 60.1046 29.1436 59.6629 28.8201 59.3036C28.4967 58.9444 28.0801 58.6816 27.6166 58.5443C27.153 58.407 26.6606 58.4005 26.1937 58.5256C25.7267 58.6508 25.3034 58.9026 24.9706 59.2532C24.6378 59.6039 24.4086 60.0398 24.308 60.5126C24.2075 60.9855 24.2397 61.477 24.4011 61.9327C24.5625 62.3884 24.8467 62.7906 25.2224 63.0948L25.0391 63.3212C24.6217 62.9831 24.3059 62.5362 24.1266 62.0299C23.9473 61.5236 23.9115 60.9775 24.0231 60.4521C24.1348 59.9267 24.3897 59.4424 24.7593 59.0528C25.1291 58.6631 25.5994 58.3833 26.1183 58.2443C26.6371 58.1053 27.1843 58.1124 27.6993 58.265C28.2144 58.4176 28.6772 58.7096 29.0366 59.1087C29.3727 59.4821 29.6064 59.9356 29.7152 60.4249L32.5043 54.3484C32.5377 54.034 32.5314 53.7153 32.4842 53.3997C32.3821 52.7167 32.0931 52.0752 31.6492 51.5461C31.2053 51.0171 30.6237 50.6211 29.9688 50.402C29.3138 50.1828 28.6111 50.1491 27.9382 50.3044C27.2653 50.4598 26.6484 50.7982 26.1558 51.2823C25.6632 51.7663 25.3141 52.3772 25.147 53.0473C24.98 53.7174 25.0014 54.4206 25.2091 55.0793C25.4168 55.7379 25.8026 56.3263 26.3237 56.7794L26.0508 57.0935C25.4716 56.59 25.043 55.9362 24.8122 55.2044C24.5816 54.4726 24.5577 53.6912 24.7433 52.9466C24.929 52.2021 25.3168 51.5233 25.8641 50.9855C26.4115 50.4476 27.0969 50.0716 27.8445 49.899C28.5923 49.7264 29.3731 49.7639 30.1008 50.0074C30.8285 50.2509 31.4747 50.6908 31.968 51.2787C32.4612 51.8665 32.7823 52.5793 32.8957 53.3382C32.9018 53.3788 32.9072 53.4194 32.9121 53.4601L37.1295 44.2722C37.198 43.7623 37.1676 43.2419 37.0377 42.7399C36.8532 42.0265 36.475 41.378 35.945 40.8661C35.4149 40.3542 34.7536 39.9989 34.0342 39.8394C33.3148 39.6799 32.5652 39.7225 31.8685 39.9624C31.1718 40.2023 30.555 40.6302 30.0861 41.1988C29.6174 41.7674 29.3151 42.4545 29.2125 43.1843C29.11 43.914 29.2112 44.6578 29.5051 45.3336C29.7989 46.0094 30.2739 46.5907 30.8775 47.0134L30.6229 47.3771C29.9522 46.9075 29.4244 46.2615 29.0979 45.5106C28.7715 44.7598 28.659 43.9333 28.7729 43.1225C28.8869 42.3117 29.2228 41.5482 29.7436 40.9164C30.2644 40.2846 30.9498 39.8092 31.724 39.5426C32.4981 39.276 33.3309 39.2287 34.1303 39.406C34.9296 39.5832 35.6644 39.978 36.2534 40.5467C36.8423 41.1155 37.2626 41.8361 37.4676 42.6287C37.5231 42.8433 37.5622 43.0609 37.585 43.2797L37.8836 42.6294C40.7786 40.4131 43.0659 38.4656 45.2913 36.8285L45.2537 36.8109C45.7207 35.8095 45.9016 34.6984 45.7766 33.6005C45.6516 32.5026 45.2252 31.4607 44.5449 30.59C43.8646 29.7192 42.9568 29.0536 41.9218 28.6666C40.8868 28.2796 39.7649 28.1864 38.6802 28.3972C37.5955 28.6081 36.5903 29.1148 35.7756 29.8613C34.9609 30.6078 34.3685 31.5651 34.0639 32.6273C33.7594 33.6894 33.7544 34.8152 34.0497 35.88C34.345 36.9448 34.929 37.9072 35.7372 38.6608L35.2831 39.1477C34.3853 38.3103 33.7363 37.241 33.4082 36.0579C33.0801 34.8748 33.0856 33.624 33.424 32.4438C33.7624 31.2636 34.4206 30.1999 35.3258 29.3705C36.231 28.541 37.348 27.978 38.5532 27.7437C39.7584 27.5095 41.0049 27.613 42.155 28.043C43.305 28.473 44.3137 29.2126 45.0696 30.1801C45.8255 31.1476 46.299 32.3053 46.438 33.5251C46.5397 34.4173 46.4594 35.3173 46.206 36.1717C50.4314 33.2178 54.7042 31.4101 62.7939 31.0357C63.6397 29.7904 64.1604 28.3505 64.3052 26.8474C64.4641 25.1976 64.1636 23.5359 63.4371 22.0462C62.7104 20.5565 61.586 19.2967 60.1881 18.4061C58.7902 17.5155 57.1732 17.0289 55.516 17C53.8588 16.971 52.2258 17.401 50.7977 18.2422C49.3695 19.0834 48.2019 20.3032 47.4237 21.7667C46.6455 23.2302 46.2873 24.8803 46.3884 26.5347C46.4897 28.1891 47.0464 29.7833 47.9971 31.141L47.1791 31.7138C46.1227 30.2052 45.5042 28.4339 45.3917 26.5957C45.2793 24.7575 45.6774 22.924 46.542 21.2979C47.4066 19.6718 48.704 18.3165 50.2909 17.3818C51.8777 16.4471 53.6921 15.9694 55.5335 16.0015C57.3748 16.0337 59.1714 16.5744 60.7247 17.5639C62.2779 18.5534 63.5273 19.9532 64.3345 21.6084C65.1419 23.2637 65.4757 25.11 65.2992 26.9432L65.2992 26.9432Z" id="path_3" />
    <clipPath id="clip_1">
      <use xlink:href="#path_1" clip-rule="evenodd" fill-rule="evenodd" />
    </clipPath>
    <clipPath id="clip_2">
      <use xlink:href="#path_2" />
    </clipPath>
    <clipPath id="clip_3">
      <use xlink:href="#path_3" />
    </clipPath>
  </defs>
  <g id="favicon">
    <path d="M128 0L128 0L128 128L0 128L0 0L128 0Z" id="favicon" fill="#FFFFFF" stroke="none" />
    <g id="Group" clip-path="url(#clip_1)">
      <g id="Oval">
        <use stroke="none" fill="#FFFFFF" xlink:href="#path_2" fill-rule="evenodd" />
        <g clip-path="url(#clip_2)">
          <use xlink:href="#path_2" fill="none" stroke="#FFA000" stroke-width="2" />
        </g>
      </g>
      <g id="Vector-Copy">
        <g clip-path="url(#clip_3)">
          <use xlink:href="#path_3" fill="none" stroke="#FC4850" stroke-width="10" />
        </g>
      </g>
    </g>
  </g>
</svg>