<?xml version="1.0" encoding="utf-8"?>
<svg width="64px" height="64px" viewBox="0 0 64 64" version="1.1" xmlns:xlink="http://www.w3.org/1999/xlink" xmlns="http://www.w3.org/2000/svg">
  <defs>
    <path d="M0 32C0 14.3269 14.3269 0 32 0C49.6731 0 64 14.3269 64 32C64 49.6731 49.6731 64 32 64C14.3269 64 0 49.6731 0 32Z" id="path_1" />
    <clipPath id="clip_1">
      <use xlink:href="#path_1" />
    </clipPath>
  </defs>
  <g id="arrow-downwards">
    <g id="Oval">
      <use stroke="none" fill="#FFFFFF" xlink:href="#path_1" fill-rule="evenodd" />
      <g clip-path="url(#clip_1)">
        <use xlink:href="#path_1" fill="none" stroke="#212121" stroke-opacity="0.12941177" stroke-width="2" />
      </g>
    </g>
    <g id="-Round--Navigation--expand_more" fill-opacity="1" transform="translate(8 8)">
      <path d="M48 0L48 0L48 48L0 48L0 0L48 0Z" id="-Round--Navigation--expand_more" fill="none" stroke="none" />
      <g id="-Round--Navigation--expand_more">
        <path d="M48 48L0 48L0 0L48 0L48 48Z" id="Path" fill="none" fill-rule="evenodd" stroke="none" />
        <path d="M31.76 18.58L24 26.34L16.24 18.58C15.46 17.8 14.2 17.8 13.42 18.58C12.64 19.36 12.64 20.62 13.42 21.4L22.6 30.58C23.38 31.36 24.64 31.36 25.42 30.58L34.6 21.4C35.38 20.62 35.38 19.36 34.6 18.58C33.82 17.82 32.54 17.8 31.76 18.58L31.76 18.58Z" id="🔹-Icon-Color" fill="#536DFE" fill-rule="evenodd" stroke="none" />
      </g>
    </g>
  </g>
</svg>